<svg width="21" height="19" viewBox="0 0 21 19" fill="none" xmlns="http://www.w3.org/2000/svg">
<path d="M19.2913 1.61183C18.7805 1.10083 18.1741 0.695472 17.5066 0.41891C16.8392 0.142347 16.1238 0 15.4013 0C14.6788 0 13.9634 0.142347 13.2959 0.41891C12.6285 0.695472 12.022 1.10083 11.5113 1.61183L10.4513 2.67183L9.39129 1.61183C8.3596 0.580134 6.96032 0.000534762 5.50129 0.000534773C4.04226 0.000534784 2.64298 0.580134 1.61129 1.61183C0.579599 2.64352 1.08706e-08 4.04279 0 5.50183C-1.08706e-08 6.96086 0.579599 8.36013 1.61129 9.39183L2.67129 10.4518L10.4513 18.2318L18.2313 10.4518L19.2913 9.39183C19.8023 8.88107 20.2076 8.27464 20.4842 7.60718C20.7608 6.93972 20.9031 6.22431 20.9031 5.50183C20.9031 4.77934 20.7608 4.06393 20.4842 3.39647C20.2076 2.72901 19.8023 2.12258 19.2913 1.61183Z" fill="#BA0707"/>
</svg>
