<svg width="27" height="28" viewBox="0 0 27 28" fill="none" xmlns="http://www.w3.org/2000/svg">
<path fill-rule="evenodd" clip-rule="evenodd" d="M12.5243 0.518775C10.8164 0.685242 9.43645 1.02947 8.09226 1.62437C7.10359 2.06188 5.91875 2.74922 5.63794 3.04812C5.35856 3.34549 5.54213 3.83176 5.95821 3.89671C6.11687 3.92145 6.21406 3.87729 6.72043 3.55032C7.40043 3.11117 8.45527 2.58196 9.20028 2.30607C9.73255 2.10894 11.0449 1.75454 11.2425 1.75454C11.3473 1.75454 11.3475 1.75728 11.2527 1.89963C10.3981 3.18219 9.79787 4.76883 9.30919 7.03694L9.2226 7.43879L8.86956 7.5259C8.09754 7.71637 7.51245 8.26848 7.25539 9.04901C7.227 9.13527 7.05505 9.14134 4.63793 9.14134C3.21507 9.14134 2.05091 9.1262 2.05091 9.10762C2.05091 9.01323 2.66196 7.84068 2.92693 7.42655C3.30519 6.8355 3.33104 6.63035 3.05789 6.38633C2.90657 6.25109 2.84958 6.23157 2.67452 6.25505C2.40321 6.29146 2.36248 6.33082 2.0164 6.89026C-0.768105 11.3917 -0.660943 17.1322 2.28966 21.5305L2.51412 21.8651L2.35894 22.1659C2.14478 22.5811 2.06537 23.0778 2.14177 23.5238C2.39672 25.0121 3.9986 25.8238 5.32791 25.1382L5.62649 24.9842L6.09434 25.2874C8.23915 26.6774 10.4967 27.3912 13.0474 27.4861C17.7553 27.6612 22.1958 25.3487 24.8259 21.3522C26.3189 19.0836 27.0932 16.2903 26.991 13.5425C26.8962 10.9917 26.1823 8.73422 24.7923 6.58941L24.4891 6.12156L24.6431 5.82298C24.8562 5.40984 24.9354 4.91255 24.8591 4.46723C24.604 2.97768 23.0023 2.1673 21.6708 2.85401L21.37 3.00918L21.0354 2.78473C19.3563 1.6583 17.4693 0.933914 15.3999 0.621241C14.8744 0.541833 12.9802 0.474349 12.5243 0.518775ZM13.9623 1.67354C15.12 2.21252 16.2774 4.82956 16.8217 8.13885C16.8813 8.50159 16.9431 8.87578 16.959 8.97034L16.9878 9.14229L14.2627 9.12862L11.5376 9.11496L11.4412 8.86101C11.2617 8.38789 10.9285 8.03137 10.2873 7.62641C10.2562 7.60684 10.4224 6.84046 10.6339 6.02833C11.3295 3.35568 12.4874 1.54454 13.5005 1.54454C13.602 1.54454 13.8099 1.60258 13.9623 1.67354ZM16.5691 1.93261C16.9562 2.03054 17.5104 2.19859 17.8006 2.30607C19.004 2.7517 20.7245 3.71742 20.651 3.90599C20.5231 4.23407 20.4549 4.66219 20.4809 4.97312C20.6094 6.50905 22.1192 7.41837 23.5894 6.84526C23.6602 6.81761 23.7456 6.91095 23.9842 7.27659C24.2724 7.71817 24.95 8.9935 24.95 9.09438C24.95 9.12134 23.4813 9.14134 21.5042 9.14134H18.0583L17.914 8.25756C17.4938 5.68363 16.7967 3.53555 15.9577 2.2294C15.8365 2.04077 15.7194 1.85679 15.6975 1.82049C15.6347 1.71681 15.8003 1.73813 16.5691 1.93261ZM23.2152 3.80142C24.0757 4.25096 24.0255 5.46767 23.1297 5.87685C22.3619 6.22756 21.4504 5.56206 21.5322 4.71052C21.5878 4.1315 22.1071 3.654 22.6812 3.654C22.8543 3.654 23.0212 3.70006 23.2152 3.80142ZM3.86595 4.57207C3.66857 4.76946 3.63923 4.93951 3.76175 5.17647C3.94336 5.52761 4.48502 5.52761 4.66663 5.17647C4.80666 4.90564 4.72135 4.59766 4.47035 4.46787C4.2334 4.34535 4.06334 4.37469 3.86595 4.57207ZM9.89628 8.64183C10.4481 8.91683 10.6942 9.57621 10.447 10.1175C10.0358 11.0176 8.82287 11.0633 8.36695 10.1958C8.23884 9.95199 8.21815 9.85923 8.23578 9.60708C8.29461 8.76546 9.14836 8.26917 9.89628 8.64183ZM7.25539 10.2889C7.44618 10.8683 7.89044 11.3968 8.39275 11.6422L8.69323 11.789L8.66305 13.2484C8.63604 14.5536 8.67366 15.8002 8.78631 17.3328L8.82023 17.7945H5.22861H1.63699L1.58148 17.623C1.46609 17.2665 1.26168 16.3439 1.17188 15.7742C1.10218 15.3317 1.07907 14.877 1.08013 13.9691C1.08187 12.5275 1.18444 11.7756 1.55705 10.4736L1.6363 10.1966H4.43062C7.04518 10.1966 7.22695 10.2026 7.25539 10.2889ZM17.113 10.2626C17.2222 10.5993 17.3322 13.9934 17.2752 15.269L17.2359 16.1467L17.0617 16.175C16.7422 16.2269 16.303 16.4858 16.0053 16.798C15.7423 17.0736 15.4545 17.5587 15.4532 17.7285C15.4524 17.8251 9.91918 17.8251 9.88789 17.7285C9.77877 17.3922 9.66871 13.998 9.72564 12.7247L9.76474 11.8495L10.0223 11.7835C10.3475 11.7002 10.8433 11.3821 11.065 11.1145C11.2184 10.9295 11.4339 10.5335 11.5145 10.2889C11.543 10.2026 11.7237 10.1966 14.3183 10.1966C16.4904 10.1966 17.0963 10.2109 17.113 10.2626ZM25.4194 10.3681C25.5355 10.7267 25.7394 11.6483 25.8283 12.2168C25.9593 13.053 25.9596 14.9022 25.8291 15.7367C25.732 16.3575 25.5881 17.0247 25.445 17.5174L25.3646 17.7945H22.5573H19.75L19.5988 17.4476C19.4073 17.0078 19.03 16.5934 18.6241 16.3771L18.3075 16.2084L18.3378 14.7458C18.3649 13.4373 18.3274 12.1921 18.2146 10.6583L18.1807 10.1966H21.7723H25.3639L25.4194 10.3681ZM18.0942 17.3064C18.2817 17.4014 18.4351 17.5304 18.539 17.6803C18.6823 17.887 18.6976 17.9489 18.6976 18.3221C18.6976 18.6953 18.6823 18.7572 18.539 18.9639C18.3535 19.2314 17.9075 19.483 17.6197 19.4825C16.9527 19.4815 16.4345 18.9742 16.4345 18.3221C16.4345 17.4484 17.3135 16.9105 18.0942 17.3064ZM9.08689 19.7335C9.51544 22.3585 10.2154 24.4896 11.093 25.8408C11.2916 26.1465 11.3173 26.2128 11.2423 26.2253C11.0998 26.2492 9.78273 25.9007 9.20028 25.685C7.99687 25.2394 6.27643 24.2736 6.34993 24.0851C6.47782 23.757 6.54605 23.3289 6.52003 23.0179C6.3915 21.482 4.88169 20.5727 3.41156 21.1458C3.34075 21.1734 3.25533 21.0801 3.01668 20.7145C2.72849 20.2729 2.05091 18.9976 2.05091 18.8967C2.05091 18.8697 3.51957 18.8497 5.49675 18.8497H8.94259L9.08689 19.7335ZM15.4532 18.9157C15.4535 18.952 15.512 19.1068 15.5832 19.2598C15.7432 19.6034 16.1687 20.0614 16.483 20.2281C16.6128 20.2969 16.719 20.3805 16.719 20.4137C16.719 20.5354 16.3984 21.8816 16.2392 22.4285C15.6458 24.4663 14.7874 25.9333 13.9641 26.3167C13.6125 26.4803 13.3888 26.4805 13.0386 26.3175C11.8796 25.7779 10.7659 23.2611 10.1776 19.8522C10.0899 19.3444 10.0182 18.9111 10.0182 18.8893C10.0181 18.8675 11.2409 18.8497 12.7354 18.8497C14.8738 18.8497 15.4528 18.8637 15.4532 18.9157ZM24.95 18.8842C24.95 18.9547 24.3256 20.1578 24.1046 20.5129C23.1224 22.0916 21.5966 23.6175 20.0178 24.5997C19.4646 24.9439 18.5003 25.4155 17.851 25.6596C17.2754 25.8759 15.969 26.2365 15.7609 26.2365C15.6534 26.2365 15.6532 26.2341 15.7483 26.0914C16.5949 24.8207 17.2211 23.1665 17.6924 20.9552L17.7778 20.5544L18.1058 20.4633C18.8119 20.2669 19.3205 19.8354 19.5988 19.1966L19.75 18.8497H22.35C23.78 18.8497 24.95 18.8652 24.95 18.8842ZM4.85368 22.1629C5.73682 22.6243 5.64876 23.9043 4.70921 24.2631C3.95634 24.5506 3.11408 23.9219 3.17054 23.1144C3.21328 22.5032 3.72328 22.0155 4.31972 22.0155C4.49283 22.0155 4.65967 22.0615 4.85368 22.1629Z" fill="#8E2424"/>
</svg>
